<svg xmlns="http://www.w3.org/2000/svg" width="21.773" height="16.791" viewBox="0 0 21.773 16.791">
  <g id="aboutAttendiesSvg" transform="translate(-11.538 -14.605)">
    <g id="Group_1507" data-name="Group 1507" transform="translate(12.288 15.355)">
      <path id="Path_194" data-name="Path 194" d="M745.888,66.9a2.871,2.871,0,0,0,.066-5.677" transform="translate(-729.75 -60.25)" fill="none" stroke="#ffefbb" stroke-linecap="round" stroke-linejoin="round" stroke-width="1.5"/>
      <path id="Path_195" data-name="Path 195" d="M747.729,70.25c1.351.2,2.294.675,2.294,1.65,0,.671-.444,1.107-1.162,1.381" transform="translate(-729.75 -60.25)" fill="none" stroke="#ffefbb" stroke-linecap="round" stroke-linejoin="round" stroke-width="1.5"/>
      <path id="Path_196" data-name="Path 196" d="M739.887,70.664c-3.214,0-5.959.487-5.959,2.432s2.728,2.445,5.959,2.445c3.214,0,5.958-.482,5.958-2.428S743.118,70.664,739.887,70.664Z" transform="translate(-729.75 -60.25)" fill="none" stroke="#ffefbb" stroke-linecap="round" stroke-linejoin="round" stroke-width="1.5" fill-rule="evenodd"/>
      <path id="Path_197" data-name="Path 197" d="M739.887,67.888a3.805,3.805,0,1,0-.028,0Z" transform="translate(-729.75 -60.25)" fill="none" stroke="#ffefbb" stroke-linecap="round" stroke-linejoin="round" stroke-width="1.5" fill-rule="evenodd"/>
      <path id="Path_198" data-name="Path 198" d="M733.885,66.9a2.871,2.871,0,0,1-.066-5.677" transform="translate(-729.75 -60.25)" fill="none" stroke="#ffefbb" stroke-linecap="round" stroke-linejoin="round" stroke-width="1.5"/>
      <path id="Path_199" data-name="Path 199" d="M732.044,70.25c-1.351.2-2.294.675-2.294,1.65,0,.671.444,1.107,1.162,1.381" transform="translate(-729.75 -60.25)" fill="none" stroke="#ffefbb" stroke-linecap="round" stroke-linejoin="round" stroke-width="1.5"/>
    </g>
  </g>
</svg>
