<svg xmlns="http://www.w3.org/2000/svg" xmlns:xlink="http://www.w3.org/1999/xlink" width="28" height="28" viewBox="0 0 28 28">
  <defs>
    <clipPath id="clip-path">
      <rect id="Rectangle_182" data-name="Rectangle 182" width="28" height="28" transform="translate(4203 488)" fill="#fff"/>
    </clipPath>
  </defs>
  <g id="add_address" data-name="add address" transform="translate(-4203 -488)" clip-path="url(#clip-path)">
    <g id="Group_1741" data-name="Group 1741" transform="translate(4205 490)">
      <path id="Path_57860" data-name="Path 57860" d="M16.667,2H7.333C3.929,2,2,3.929,2,7.333v9.333C2,20.062,3.92,22,7.333,22h9.333C20.071,22,22,20.062,22,16.667V7.333C22,3.929,20.071,2,16.667,2Z" fill="none" stroke="#fff" stroke-width="1" opacity="0.47"/>
      <path id="Path_57861" data-name="Path 57861" d="M15.321,12.708H12.75v2.549a.75.75,0,0,1-1.5,0V12.708H8.68a.75.75,0,0,1,0-1.494h2.563V8.674a.758.758,0,0,1,1.507,0v2.541h2.571a.75.75,0,0,1,0,1.494Z" fill="#fff"/>
    </g>
  </g>
</svg>
