<svg xmlns="http://www.w3.org/2000/svg" width="40" height="40" viewBox="0 0 40 40"><g transform="translate(-312 -280)"><g transform="translate(0 16)"><rect width="40" height="40" rx="4" transform="translate(312 264)" fill="#ff5349"/></g><g transform="translate(320 288)"><path d="M3.093,9.4H20.917" fill="none" stroke="#fff" stroke-linecap="round" stroke-linejoin="round" stroke-width="1.5"/><path d="M16.442,13.31h.009" fill="none" stroke="#fff" stroke-linecap="round" stroke-linejoin="round" stroke-width="1.5"/><path d="M12,13.31h.009" fill="none" stroke="#fff" stroke-linecap="round" stroke-linejoin="round" stroke-width="1.5"/><path d="M7.558,13.31h.009" fill="none" stroke="#fff" stroke-linecap="round" stroke-linejoin="round" stroke-width="1.5"/><path d="M16.442,17.2h.009" fill="none" stroke="#fff" stroke-linecap="round" stroke-linejoin="round" stroke-width="1.5"/><path d="M12,17.2h.009" fill="none" stroke="#fff" stroke-linecap="round" stroke-linejoin="round" stroke-width="1.5"/><path d="M7.558,17.2h.009" fill="none" stroke="#fff" stroke-linecap="round" stroke-linejoin="round" stroke-width="1.5"/><path d="M16.044,2V5.291" fill="none" stroke="#fff" stroke-linecap="round" stroke-linejoin="round" stroke-width="1.5"/><path d="M7.965,2V5.291" fill="none" stroke="#fff" stroke-linecap="round" stroke-linejoin="round" stroke-width="1.5"/><path d="M16.238,3.579H7.771C4.834,3.579,3,5.215,3,8.222v9.05C3,20.326,4.834,22,7.771,22h8.458C19.175,22,21,20.355,21,17.347V8.222C21.009,5.215,19.184,3.579,16.238,3.579Z" fill="none" stroke="#fff" stroke-linecap="round" stroke-linejoin="round" stroke-width="1.5" fill-rule="evenodd"/></g></g></svg>