<svg xmlns="http://www.w3.org/2000/svg" width="145.984" height="142.945" viewBox="0 0 145.984 142.945">
  <g id="Group_1495" data-name="Group 1495" transform="translate(-2 -2.5)">
    <path id="Path_176" data-name="Path 176" d="M5.911,30.155A11.05,11.05,0,1,1,17,41.168,11.081,11.081,0,0,1,5.911,30.155Zm82.052,0A11.05,11.05,0,1,1,99.049,41.168,11.081,11.081,0,0,1,87.963,30.155Z" transform="translate(24.611 104.277)" fill="#ffefbb" fill-rule="evenodd" opacity="0.4"/>
    <path id="Path_177" data-name="Path 177" d="M134.675,30.575c4.449,0,7.367,1.532,10.284,4.887S148.387,43.63,147.73,48L140.8,95.845a18.611,18.611,0,0,1-18.453,15.973H42.776a18.59,18.59,0,0,1-18.526-17.06l-6.71-79.507-11.013-1.9A5.492,5.492,0,0,1,2.078,7.082,5.577,5.577,0,0,1,8.424,2.56l17.4,2.626a5.507,5.507,0,0,1,4.522,4.96l1.386,16.338a4.452,4.452,0,0,0,4.449,4.092Zm-44.2,37.919h20.2a5.47,5.47,0,0,0,0-10.94h-20.2a5.47,5.47,0,1,0,0,10.94Z" transform="translate(0 0)" fill="#756d56" fill-rule="evenodd"/>
  </g>
</svg>
