<svg xmlns="http://www.w3.org/2000/svg" width="24" height="24" viewBox="0 0 24 24"><g transform="translate(-3704 -2244)"><g transform="translate(-581.028 35)"><path d="M200.143,33h17.143l-1.715,10.286H201.857Z" transform="translate(4089.332 2180)" fill="none" stroke="#ff5349" stroke-linecap="round" stroke-linejoin="round" stroke-width="1.5"/><path d="M203.571,49a1.143,1.143,0,1,0-1.143-1.143A1.142,1.142,0,0,0,203.571,49Z" transform="translate(4089.825 2180)" fill="none" stroke="#ff5349" stroke-linecap="round" stroke-linejoin="round" stroke-width="1.5"/><path d="M213.857,49a1.143,1.143,0,1,0-1.143-1.143A1.143,1.143,0,0,0,213.857,49Z" transform="translate(4088.851 2180)" fill="none" stroke="#ff5349" stroke-linecap="round" stroke-linejoin="round" stroke-width="1.5"/><path d="M200.143,33h-3.429" transform="translate(4090.314 2180)" fill="none" stroke="#ff5349" stroke-linecap="round" stroke-linejoin="round" stroke-width="1.5"/></g><rect width="24" height="24" transform="translate(3704 2244)" fill="none"/><path d="M3708.48,2248.467l.68,2.778.567,4.478.567,1.984,1.587.68,12.018-.227,1.7-10.43Z" fill="rgba(255,83,73,0.15)"/></g></svg>