<svg xmlns="http://www.w3.org/2000/svg" xmlns:xlink="http://www.w3.org/1999/xlink" width="28" height="28" viewBox="0 0 28 28"><defs><clipPath id="a"><rect width="28" height="28" transform="translate(4203 449)" fill="#fff"/></clipPath></defs><g transform="translate(-4203 -449)" clip-path="url(#a)"><g transform="translate(4205.5 451)"><path d="M12,13.75a3.25,3.25,0,1,1,3.25-3.25A3.254,3.254,0,0,1,12,13.75Zm0-5a1.75,1.75,0,1,0,1.75,1.75A1.752,1.752,0,0,0,12,8.75Z" fill="#e59590"/><path d="M12,21.75c-1.09,0-3.266-1.788-4.76-3.47-1.3-1.467-3.49-4.421-3.49-7.717a8.25,8.25,0,1,1,16.5,0c0,3.3-2.187,6.25-3.49,7.717C15.266,19.962,13.09,21.75,12,21.75Zm0-18a6.789,6.789,0,0,0-6.75,6.813c0,2.741,1.879,5.307,3,6.593A11.715,11.715,0,0,0,12,20.245a11.717,11.717,0,0,0,3.751-3.089c1.12-1.286,3-3.853,3-6.593A6.79,6.79,0,0,0,12,3.75Z" fill="#ff5349"/></g></g></svg>