<svg xmlns="http://www.w3.org/2000/svg" width="32" height="32" viewBox="0 0 32 32">
  <g id="Dress_code" data-name="Dress code" transform="translate(-57 -555)">
    <rect id="Rectangle_78" data-name="Rectangle 78" width="32" height="32" rx="16" transform="translate(57 555)" fill="rgba(255,239,187,0.09)"/>
    <g id="Layer_3" transform="translate(-27.544 557.733)">
      <g id="Path_58086" data-name="Path 58086" transform="translate(-59.541 0)" fill="#3e332b" stroke-linejoin="round" stroke-miterlimit="10">
        <path d="M 159.9792785644531 11.5813570022583 L 156.1252288818359 4.719216823577881 L 155.9748992919922 4.451516628265381 L 156.1946105957031 4.237076759338379 L 157.4818725585938 2.98073673248291 L 157.9467926025391 2.526976823806763 L 158.1426391601562 3.146416664123535 L 160.7094268798828 11.26489639282227 L 159.9792785644531 11.5813570022583 Z" stroke="none"/>
        <path d="M 157.7612457275391 3.266996383666992 L 156.4739990234375 4.523336410522461 L 160.3280334472656 11.38547706604004 L 157.7612457275391 3.266996383666992 M 157.7612762451172 2.466980934143066 C 157.8261108398438 2.466980934143066 157.8913879394531 2.474863052368164 157.955810546875 2.491016387939453 C 158.2252044677734 2.558567047119141 158.4403076171875 2.761006355285645 158.5240325927734 3.025826454162598 L 161.0908203125 11.14430618286133 C 161.2144317626953 11.53528690338135 161.0224151611328 11.9564266204834 160.6461791992188 12.11949729919434 C 160.2699127197266 12.28256988525391 159.831298828125 12.1347541809082 159.6305236816406 11.77722644805908 L 155.7764739990234 4.91508674621582 C 155.59912109375 4.599316596984863 155.6560363769531 4.203776359558105 155.9152221679688 3.950817108154297 L 157.2024688720703 2.694477081298828 C 157.3537139892578 2.546876907348633 157.5550079345703 2.466980934143066 157.7612762451172 2.466980934143066 Z" stroke="none" fill="#ffefbb"/>
      </g>
      <g id="Path_58087" data-name="Path 58087" transform="translate(-155.589 0)" fill="#3e332b" stroke-linejoin="round" stroke-miterlimit="10">
        <path d="M 256.7263793945312 11.57843685150146 L 255.9925994873047 11.27143669128418 L 258.4074096679688 3.15295672416687 L 258.5901794433594 2.538506746292114 L 259.061767578125 2.972736835479736 L 260.4261779785156 4.229076862335205 L 260.6568908691406 4.44154691696167 L 260.5055847167969 4.716296672821045 L 256.7263793945312 11.57843685150146 Z" stroke="none"/>
        <path d="M 256.3760070800781 11.38547706604004 L 260.1552124023438 4.523336887359619 L 258.7908020019531 3.266996622085571 L 256.3760070800781 11.38547706604004 M 256.3756713867188 12.1856050491333 C 256.2724609375 12.1856050491333 256.1677551269531 12.16555309295654 256.0672302246094 12.12348651885986 C 255.690185546875 11.96573638916016 255.4926910400391 11.54914665222168 255.6092071533203 11.15739631652832 L 258.0240173339844 3.038916826248169 C 258.1026916503906 2.774326801300049 258.312255859375 2.569006681442261 258.5783996582031 2.49571681022644 C 258.8443603515625 2.422428131103516 259.1296081542969 2.491485834121704 259.3327026367188 2.678486824035645 L 260.6971130371094 3.934826612472534 C 260.9680786132812 4.18433666229248 261.0336608886719 4.586616516113281 260.8559875488281 4.909266948699951 L 257.0767517089844 11.77140712738037 C 256.9321594238281 12.03394889831543 256.6595153808594 12.1856050491333 256.3756713867188 12.1856050491333 Z" stroke="none" fill="#ffefbb"/>
      </g>
      <path id="Path_58088" data-name="Path 58088" d="M100.777,47.673l6.054-11.679a25.048,25.048,0,0,1-.259,5.291,15.9,15.9,0,0,0-.781,3.693,10.7,10.7,0,0,0,.647,5.028A15.224,15.224,0,0,1,107,52.891s-1.382,1.184-4.6,1.184a12.157,12.157,0,0,1-1.622-4.636c0-2.182.01-6.745.01-6.745h0s-.01,4.457-.01,6.745a12.058,12.058,0,0,1-1.629,4.631c-3.221,0-4.6-1.181-4.6-1.181A15.21,15.21,0,0,1,95.108,50a10.7,10.7,0,0,0,.647-5.027,15.893,15.893,0,0,0-.781-3.692,25.048,25.048,0,0,1-.259-5.291l5.665,11.679" transform="translate(0 -31.308)" fill="#ffefbb" stroke="#ffefbb" stroke-linejoin="round" stroke-miterlimit="10" stroke-width="0.8"/>
    </g>
  </g>
</svg>
