<svg xmlns="http://www.w3.org/2000/svg" width="343" height="215.555" viewBox="0 0 343 215.555">
  <g id="Group_1637" data-name="Group 1637" transform="translate(-16 -199.934)">
    <path id="Subtraction_3" data-name="Subtraction 3" d="M348,215.555H15a5.006,5.006,0,0,1-5-5V64.7a13.031,13.031,0,0,0,8-12.286,13.032,13.032,0,0,0-8-12.286V5a5.006,5.006,0,0,1,5-5H348a5.006,5.006,0,0,1,5,5V40.125a13.032,13.032,0,0,0-8,12.286A13.033,13.033,0,0,0,353,64.7V210.555A5.006,5.006,0,0,1,348,215.555Z" transform="translate(6 199.934)" fill="rgba(255,249,229,0.27)" opacity="0.5"/>
    <g id="Group_1575" data-name="Group 1575" transform="translate(33 309.296)">
      <rect id="Rectangle_83" data-name="Rectangle 83" width="40" height="40" rx="2" transform="translate(0 -0.297)" fill="rgba(0,0,0,0.27)"/>
      <g id="tickets" transform="translate(6.848 7.083)">
        <path id="Path_224" data-name="Path 224" d="M81.147,33.27a2.284,2.284,0,1,1-3.231-3.231L75.877,28,64,39.877H79.532l4.111-4.111Z" transform="translate(-60.345 -28)" fill="#ffd884"/>
        <path id="Path_225" data-name="Path 225" d="M64,168.111H79.532L83.643,164l-16.9,1.37Z" transform="translate(-60.345 -156.234)" fill="#ffbf41"/>
        <path id="Path_226" data-name="Path 226" d="M120,114.852,126.852,108l5.025,5.025-1.827,1.827Z" transform="translate(-113.148 -103.432)" fill="#ec7422"/>
        <path id="Path_227" data-name="Path 227" d="M144,137.482,149.451,132l3.685,3.685-1.767,1.8Z" transform="translate(-135.777 -126.061)" fill="#f6f6e7"/>
        <path id="Path_228" data-name="Path 228" d="M24.212,233.939a2.284,2.284,0,0,1,2.284-2.284V228H0v3.655a2.284,2.284,0,0,1,2.284,2.284A2.284,2.284,0,0,1,0,236.223v3.655H26.5v-3.655A2.284,2.284,0,0,1,24.212,233.939Z" transform="translate(0 -216.579)" fill="#ffd884"/>
        <path id="Path_229" data-name="Path 229" d="M0,239.877H26.5v-3.655a2.284,2.284,0,1,1,0-4.568V228Z" transform="translate(0 -216.579)" fill="#ffbf41"/>
        <g id="Group_1519" data-name="Group 1519" transform="translate(4.111 11.421)">
          <path id="Path_230" data-name="Path 230" d="M376,252h.914v1.827H376Z" transform="translate(-358.641 -250.63)" fill="#fff"/>
          <path id="Path_231" data-name="Path 231" d="M376,300h.914v1.827H376Z" transform="translate(-358.641 -295.889)" fill="#fff"/>
          <path id="Path_232" data-name="Path 232" d="M376,348h.914v1.827H376Z" transform="translate(-358.641 -341.148)" fill="#fff"/>
          <path id="Path_233" data-name="Path 233" d="M376,396h.914v1.827H376Z" transform="translate(-358.641 -386.407)" fill="#fff"/>
          <path id="Path_234" data-name="Path 234" d="M72,228h.914v1.827H72Z" transform="translate(-72 -228)" fill="#fff"/>
          <path id="Path_235" data-name="Path 235" d="M72,276h.914v1.827H72Z" transform="translate(-72 -273.259)" fill="#fff"/>
          <path id="Path_236" data-name="Path 236" d="M72,324h.914v1.827H72Z" transform="translate(-72 -318.518)" fill="#fff"/>
          <path id="Path_237" data-name="Path 237" d="M72,372h.914v1.827H72Z" transform="translate(-72 -363.777)" fill="#fff"/>
          <path id="Path_238" data-name="Path 238" d="M72,420h.914v.914H72Z" transform="translate(-72 -409.036)" fill="#fff"/>
        </g>
        <path id="Path_239" data-name="Path 239" d="M132.791,266.852v-5.482a1.371,1.371,0,0,1-1.37-1.37H121.37a1.37,1.37,0,0,1-1.37,1.37v5.482a1.37,1.37,0,0,1,1.37,1.37h10.05A1.37,1.37,0,0,1,132.791,266.852Z" transform="translate(-113.148 -246.752)" fill="#ec7422"/>
        <path id="Path_240" data-name="Path 240" d="M146.964,281.33v-4.264A1.124,1.124,0,0,1,145.789,276h-8.615A1.124,1.124,0,0,1,136,277.066v4.264a1.124,1.124,0,0,1,1.174,1.066h8.615A1.124,1.124,0,0,1,146.964,281.33Z" transform="translate(-128.234 -261.839)" fill="#f6f6e7"/>
      </g>
    </g>
    <text id="Ticket" transform="translate(112 326)" fill="#fff" font-size="18" font-family="SegoeUI, Segoe UI"><tspan x="-23.282" y="0">Ticket</tspan></text>
    <text id="More_details" data-name="More details" transform="translate(188 393)" fill="#ff5349" font-size="18" font-family="SegoeUI-Bold, Segoe UI" font-weight="700"><tspan x="-52.875" y="0">More details</tspan></text>
    <text id="Qty:_2" data-name="Qty: 2" transform="translate(102 343.445)" fill="#fff" font-size="10" font-family="SegoeUI, Segoe UI"><tspan x="-13.032" y="0">Qty: 2</tspan></text>
    <text id="Teatro_Barceló" data-name="Teatro Barceló" transform="translate(137 260.979)" fill="#fff" font-size="30" font-family="SegoeUI-Bold, Segoe UI" font-weight="700"><tspan x="-101.023" y="0">Teatro Barceló</tspan></text>
    <g id="Group_1516" data-name="Group 1516" transform="translate(2.972 -102.995)">
      <path id="Path_165" data-name="Path 165" d="M10.357,2.967l1.7,3.406a.846.846,0,0,0,.638.456l3.807.555a.853.853,0,0,1,.561.328.824.824,0,0,1,.16.621.847.847,0,0,1-.244.481l-2.759,2.674a.8.8,0,0,0-.244.734l.679,3.76a.849.849,0,0,1-.679.968.889.889,0,0,1-.544-.087l-3.4-1.77a.89.89,0,0,0-.8,0l-3.4,1.77a.87.87,0,0,1-1.167-.34.861.861,0,0,1-.088-.532l.679-3.761a.808.808,0,0,0-.244-.734L2.253,8.823a.826.826,0,0,1-.022-1.167l.022-.022a.821.821,0,0,1,.489-.24l3.808-.555a.848.848,0,0,0,.638-.457L8.822,2.967A.842.842,0,0,1,9.6,2.5h.1A.849.849,0,0,1,10.357,2.967Z" transform="translate(28.028 373.474)" fill="#ffefbb"/>
      <path id="Path_165-2" data-name="Path 165" d="M10.357,2.967l1.7,3.406a.846.846,0,0,0,.638.456l3.807.555a.853.853,0,0,1,.561.328.824.824,0,0,1,.16.621.847.847,0,0,1-.244.481l-2.759,2.674a.8.8,0,0,0-.244.734l.679,3.76a.849.849,0,0,1-.679.968.889.889,0,0,1-.544-.087l-3.4-1.77a.89.89,0,0,0-.8,0l-3.4,1.77a.87.87,0,0,1-1.167-.34.861.861,0,0,1-.088-.532l.679-3.761a.808.808,0,0,0-.244-.734L2.253,8.823a.826.826,0,0,1-.022-1.167l.022-.022a.821.821,0,0,1,.489-.24l3.808-.555a.848.848,0,0,0,.638-.457L8.822,2.967A.842.842,0,0,1,9.6,2.5h.1A.849.849,0,0,1,10.357,2.967Z" transform="translate(48.964 373.474)" fill="#ffefbb"/>
      <path id="Path_165-3" data-name="Path 165" d="M10.357,2.967l1.7,3.406a.846.846,0,0,0,.638.456l3.807.555a.853.853,0,0,1,.561.328.824.824,0,0,1,.16.621.847.847,0,0,1-.244.481l-2.759,2.674a.8.8,0,0,0-.244.734l.679,3.76a.849.849,0,0,1-.679.968.889.889,0,0,1-.544-.087l-3.4-1.77a.89.89,0,0,0-.8,0l-3.4,1.77a.87.87,0,0,1-1.167-.34.861.861,0,0,1-.088-.532l.679-3.761a.808.808,0,0,0-.244-.734L2.253,8.823a.826.826,0,0,1-.022-1.167l.022-.022a.821.821,0,0,1,.489-.24l3.808-.555a.848.848,0,0,0,.638-.457L8.822,2.967A.842.842,0,0,1,9.6,2.5h.1A.849.849,0,0,1,10.357,2.967Z" transform="translate(69.9 373.474)" fill="#ffefbb"/>
      <path id="Path_165-4" data-name="Path 165" d="M10.357,2.967l1.7,3.406a.846.846,0,0,0,.638.456l3.807.555a.853.853,0,0,1,.561.328.824.824,0,0,1,.16.621.847.847,0,0,1-.244.481l-2.759,2.674a.8.8,0,0,0-.244.734l.679,3.76a.849.849,0,0,1-.679.968.889.889,0,0,1-.544-.087l-3.4-1.77a.89.89,0,0,0-.8,0l-3.4,1.77a.87.87,0,0,1-1.167-.34.861.861,0,0,1-.088-.532l.679-3.761a.808.808,0,0,0-.244-.734L2.253,8.823a.826.826,0,0,1-.022-1.167l.022-.022a.821.821,0,0,1,.489-.24l3.808-.555a.848.848,0,0,0,.638-.457L8.822,2.967A.842.842,0,0,1,9.6,2.5h.1A.849.849,0,0,1,10.357,2.967Z" transform="translate(90.837 373.474)" fill="#c5c5c5" opacity="0.47"/>
      <path id="Path_165-5" data-name="Path 165" d="M10.357,2.967l1.7,3.406a.846.846,0,0,0,.638.456l3.807.555a.853.853,0,0,1,.561.328.824.824,0,0,1,.16.621.847.847,0,0,1-.244.481l-2.759,2.674a.8.8,0,0,0-.244.734l.679,3.76a.849.849,0,0,1-.679.968.889.889,0,0,1-.544-.087l-3.4-1.77a.89.89,0,0,0-.8,0l-3.4,1.77a.87.87,0,0,1-1.167-.34.861.861,0,0,1-.088-.532l.679-3.761a.808.808,0,0,0-.244-.734L2.253,8.823a.826.826,0,0,1-.022-1.167l.022-.022a.821.821,0,0,1,.489-.24l3.808-.555a.848.848,0,0,0,.638-.457L8.822,2.967A.842.842,0,0,1,9.6,2.5h.1A.849.849,0,0,1,10.357,2.967Z" transform="translate(111.773 373.474)" fill="#c5c5c5" opacity="0.47"/>
    </g>
    <g id="Group_1517" data-name="Group 1517" transform="translate(9 -102.021)">
      <rect id="Rectangle_79" data-name="Rectangle 79" width="42" height="17" rx="3" transform="translate(24 316)" fill="#33be46" opacity="0.86"/>
      <text id="Open" transform="translate(45 329)" fill="#fff" font-size="12" font-family="SegoeUI, Segoe UI" letter-spacing="0.024em"><tspan x="-15.839" y="0">OPEN</tspan></text>
    </g>
    <text id="price" transform="translate(308 337)" fill="#fff" font-size="20" font-family="SegoeUI, Segoe UI"><tspan x="-31.86" y="0">€ 24.99</tspan></text>
  </g>
</svg>
