<svg xmlns="http://www.w3.org/2000/svg" width="28.833" height="28.053" viewBox="0 0 28.833 28.053">
  <g id="Group_1692" data-name="Group 1692" transform="translate(-331.167 -32)">
    <g id="Group_1691" data-name="Group 1691">
      <g id="Component_23_2" data-name="Component 23 – 2" transform="translate(331.167 32)">
        <rect id="Boundary" width="28.833" height="28.053" fill="none"/>
        <g id="Group_1534" data-name="Group 1534" transform="translate(4.442 3.998)">
          <path id="Path_283" data-name="Path 283" d="M2.79,9.714c-.838-2.616.141-5.605,2.887-6.49a4.69,4.69,0,0,1,4.24.712,4.725,4.725,0,0,1,4.232-.712c2.746.885,3.731,3.874,2.894,6.49-1.3,4.146-7.126,7.34-7.126,7.34S4.138,13.908,2.79,9.714Z" transform="translate(0 0)" fill="none" stroke="#fff" stroke-linecap="round" stroke-linejoin="round" stroke-width="1.2" fill-rule="evenodd"/>
          <path id="Path_284" data-name="Path 284" d="M16,6.7a2.172,2.172,0,0,1,1.5,1.891" transform="translate(-2.959 -0.811)" fill="none" stroke="#fff" stroke-linecap="round" stroke-linejoin="round" stroke-width="1.2"/>
        </g>
      </g>
    </g>
  </g>
</svg>
