<?xml version="1.0" encoding="UTF-8" standalone="no"?>
<svg
   xmlns:dc="http://purl.org/dc/elements/1.1/"
   xmlns:cc="http://creativecommons.org/ns#"
   xmlns:rdf="http://www.w3.org/1999/02/22-rdf-syntax-ns#"
   xmlns:svg="http://www.w3.org/2000/svg"
   xmlns="http://www.w3.org/2000/svg"
   xmlns:sodipodi="http://sodipodi.sourceforge.net/DTD/sodipodi-0.dtd"
   xmlns:inkscape="http://www.inkscape.org/namespaces/inkscape"
   width="39.614"
   height="49.398"
   viewBox="0 0 39.614 49.398"
   version="1.1"
   id="svg15"
   sodipodi:docname="offer.svg">
  <metadata
     id="metadata19">
    <rdf:RDF>
      <cc:Work
         rdf:about="">
        <dc:format>image/svg+xml</dc:format>
        <dc:type
           rdf:resource="http://purl.org/dc/dcmitype/StillImage" />
      </cc:Work>
    </rdf:RDF>
  </metadata>
  <sodipodi:namedview
     pagecolor="#ffffff"
     bordercolor="#666666"
     borderopacity="1"
     objecttolerance="10"
     gridtolerance="10"
     guidetolerance="10"
     inkscape:pageopacity="0"
     inkscape:pageshadow="2"
     inkscape:window-width="640"
     inkscape:window-height="480"
     id="namedview17" />
  <defs
     id="defs7">
    <linearGradient
       id="a"
       x1="0.5"
       x2="0.5"
       y2="1.267"
       gradientUnits="objectBoundingBox">
      <stop
         offset="0"
         stop-color="#ffefbb"
         id="stop2" />
      <stop
         offset="1"
         stop-color="#ffd548"
         id="stop4" />
    </linearGradient>
  </defs>
  <g
     transform="translate(-64.268)"
     id="g13">
    <g
       transform="translate(64.268)"
       id="g11">
      <path
         d="M102.333,0H65.818a1.5,1.5,0,0,0-1.55,1.447V43.688a1.4,1.4,0,0,0,.454,1.023l4.564,4.263a1.628,1.628,0,0,0,2.192,0l3.469-3.24,3.469,3.24a1.628,1.628,0,0,0,2.191,0l3.469-3.24,3.469,3.24a1.628,1.628,0,0,0,2.191,0l3.469-3.24,3.469,3.24a1.628,1.628,0,0,0,2.191,0l4.564-4.263a1.4,1.4,0,0,0,.454-1.023V1.447A1.5,1.5,0,0,0,102.333,0Z"
         transform="translate(-64.268)"
         fill="url(#a)"
         id="path9" />
    </g>
  </g>
</svg>
