<svg xmlns="http://www.w3.org/2000/svg" width="33" height="33" viewBox="0 0 33 33">
  <g id="peopple_coming" data-name="peopple coming" transform="translate(-20 -406)">
    <rect id="Rectangle_78" data-name="Rectangle 78" width="33" height="33" rx="16.5" transform="translate(20 406)" fill="rgba(255,239,187,0.09)"/>
    <path id="Path_58092" data-name="Path 58092" d="M16.158,8.233A4.209,4.209,0,1,1,11.949,4,4.207,4.207,0,0,1,16.158,8.233ZM11.949,20c-3.431,0-6.361-.544-6.361-2.72S8.5,14.54,11.949,14.54c3.431,0,6.361.544,6.361,2.721S15.4,20,11.949,20ZM17.957,8.309a5.765,5.765,0,0,1-.984,3.241.158.158,0,0,0,.107.244,3.4,3.4,0,0,0,.484.047A3.513,3.513,0,0,0,21.088,9.22a3.576,3.576,0,0,0-3.425-4.514,3.506,3.506,0,0,0-.708.073.129.129,0,0,0-.082.05.1.1,0,0,0,.016.11A5.807,5.807,0,0,1,17.957,8.309Zm2.721,5.2a2.757,2.757,0,0,1,2.131,1.3,1.923,1.923,0,0,1,0,1.67c-.46,1-1.944,1.319-2.521,1.4a.181.181,0,0,1-.2-.205A4.451,4.451,0,0,0,17.431,13.3a.045.045,0,0,1-.029-.047.038.038,0,0,1,.032-.026A15.554,15.554,0,0,1,20.678,13.513ZM6.437,11.841a3.285,3.285,0,0,0,.484-.047.158.158,0,0,0,.107-.244,5.842,5.842,0,0,1,.084-6.612.105.105,0,0,0,.016-.11.136.136,0,0,0-.082-.05,3.521,3.521,0,0,0-.709-.073A3.575,3.575,0,0,0,2.912,9.22,3.513,3.513,0,0,0,6.437,11.841Zm.16,1.413a.046.046,0,0,1-.028.048,4.45,4.45,0,0,0-2.656,4.38.181.181,0,0,1-.2.206c-.577-.083-2.06-.4-2.521-1.4a1.917,1.917,0,0,1,0-1.67,2.759,2.759,0,0,1,2.13-1.305,15.642,15.642,0,0,1,3.244-.283A.037.037,0,0,1,6.6,13.255Z" transform="translate(25 411)" fill="#ffefbb" fill-rule="evenodd"/>
  </g>
</svg>
