<svg xmlns="http://www.w3.org/2000/svg" width="22.417" height="21.569" viewBox="0 0 22.417 21.569">
  <g id="Group_1703" data-name="Group 1703" transform="translate(-6738.853 -7282.502)">
    <g id="Group_1702" data-name="Group 1702" transform="translate(-30.099 1.561)">
      <g id="Group_1641" data-name="Group 1641" transform="translate(6768.956 7282.783) rotate(-19)">
        <path id="Path_397" data-name="Path 397" d="M0,5.808V0H5.712" transform="translate(6.026 8.777) rotate(-164.991)" fill="none" stroke="#000" stroke-linecap="round" stroke-linejoin="round" stroke-width="1.5"/>
        <path id="Path_398" data-name="Path 398" d="M4.6,4.6,0,0" transform="translate(4.449 5.641) rotate(-164.991)" fill="none" stroke="#000" stroke-linecap="round" stroke-width="1.5"/>
      </g>
      <g id="Group_1643" data-name="Group 1643" transform="translate(6771.722 7292.441) rotate(18)">
        <path id="Path_397-2" data-name="Path 397" d="M0,0V5.808h5.71" transform="translate(7.527 5.611) rotate(164.991)" fill="none" stroke="#000" stroke-linecap="round" stroke-linejoin="round" stroke-width="1.5"/>
        <path id="Path_398-2" data-name="Path 398" d="M4.605,0,0,4.605" transform="translate(5.641 7.584) rotate(164.991)" fill="none" stroke="#000" stroke-linecap="round" stroke-width="1.5"/>
      </g>
      <g id="Group_1642" data-name="Group 1642" transform="translate(6789.761 7280.933) rotate(74.991)">
        <path id="Path_397-3" data-name="Path 397" d="M0,5.808V0H5.712" transform="translate(6.026 8.777) rotate(-164.991)" fill="none" stroke="#000" stroke-linecap="round" stroke-linejoin="round" stroke-width="1.5"/>
        <path id="Path_398-3" data-name="Path 398" d="M4.6,4.6,0,0" transform="translate(4.449 5.641) rotate(-164.991)" fill="none" stroke="#000" stroke-linecap="round" stroke-width="1.5"/>
      </g>
      <g id="Group_1644" data-name="Group 1644" transform="translate(6781.519 7300.144) rotate(-74.991)">
        <path id="Path_397-4" data-name="Path 397" d="M0,0,0,5.808l5.707,0" transform="translate(7.523 5.613) rotate(164.991)" fill="none" stroke="#000" stroke-linecap="round" stroke-linejoin="round" stroke-width="1.5"/>
        <path id="Path_398-4" data-name="Path 398" d="M4.605,0,0,4.605" transform="translate(5.641 7.586) rotate(164.991)" fill="none" stroke="#000" stroke-linecap="round" stroke-width="1.5"/>
      </g>
    </g>
  </g>
</svg>
