<svg xmlns="http://www.w3.org/2000/svg" width="48" height="48" viewBox="0 0 48 48">
  <g id="Group_1702" data-name="Group 1702" transform="translate(-14 -15)">
    <g id="Group_1520" data-name="Group 1520" transform="translate(-16 -464)">
      <rect id="Rectangle_83" data-name="Rectangle 83" width="48" height="48" rx="6" transform="translate(30 479)" fill="rgba(255,239,187,0.27)"/>
    </g>
    <g id="ticket_1_" data-name="ticket (1)" transform="translate(21 22)">
      <path id="Path_241" data-name="Path 241" d="M37.617,14.5l3-3-9-9.5L19.227,14.5" transform="translate(-8.613)" fill="#ffd884"/>
      <g id="Group_1521" data-name="Group 1521" transform="translate(19.455 8.152)">
        <path id="Path_242" data-name="Path 242" d="M0,0H9.46V1H0Z" transform="translate(0 6.688) rotate(-45)" fill="#fff"/>
      </g>
      <g id="Group_1522" data-name="Group 1522" transform="translate(24.644 9.652)">
        <path id="Path_243" data-name="Path 243" d="M0,0H4.243V1H0Z" transform="translate(0 2.999) rotate(-45)" fill="#fff"/>
      </g>
      <path id="Path_244" data-name="Path 244" d="M27.489,21.146,26.075,22.56a.5.5,0,0,0,0,.707L28.2,25.388a.5.5,0,0,0,.707,0l1.414-1.414a.5.5,0,0,0,0-.707l-.707-.707-.707.707.354.354-.707.707-1.414-1.414.707-.707.354.354.707-.707-.707-.707a.5.5,0,0,0-.707,0Z" transform="translate(-11.964 -9.5)" fill="#c16b3f"/>
      <g id="Group_1523" data-name="Group 1523" transform="translate(16.232 4.222)">
        <path id="Path_245" data-name="Path 245" d="M41.777,7.858l.707-.707-.708-.707L39.655,8.565l.708.707.707-.707,2.122,2.121.707-.708Z" transform="translate(-35.059 -6.443)" fill="#c16b3f"/>
        <path id="Path_246" data-name="Path 246" d="M34,17.257h-.72l.134-.4a.5.5,0,0,0-.121-.512l-.707-.707-.707.707.489.489-.354,1.061-.842-.842-.708.708,2.829,2.829L34,19.879l-1.2-1.2.142-.426h.847l.914.915.707-.707L34.353,17.4A.5.5,0,0,0,34,17.257Z" transform="translate(-30.463 -11.039)" fill="#c16b3f"/>
        <path id="Path_247" data-name="Path 247" d="M38.449,14.574l-.354-.354,1.061-1.06-.708-.708-1.06,1.061-.353-.353L38.1,12.1l-.708-.707-1.414,1.415a.5.5,0,0,0,0,.707l2.121,2.121a.5.5,0,0,0,.708,0l1.414-1.414-.707-.708Z" transform="translate(-33.145 -8.917)" fill="#c16b3f"/>
      </g>
      <path id="Path_248" data-name="Path 248" d="M18.5,40h21V27h-21a1.386,1.386,0,0,1-.738,1.194,1.5,1.5,0,0,0,.339,2.753.515.515,0,0,1,.4.489v.13a.516.516,0,0,1-.4.489,1.5,1.5,0,0,0,0,2.893.515.515,0,0,1,.4.489v.13a.516.516,0,0,1-.4.489,1.5,1.5,0,0,0-.339,2.752A1.386,1.386,0,0,1,18.5,40Z" transform="translate(-7.5 -12.5)" fill="#ffd884"/>
      <path id="Path_249" data-name="Path 249" d="M22.161,53l-4.5,4.5a1.385,1.385,0,0,1-.322-1.366,1.5,1.5,0,0,0-2.187-1.707.516.516,0,0,1-.627-.063l-.092-.092a.516.516,0,0,1-.063-.628A1.489,1.489,0,0,0,14.561,53" transform="translate(-6.146 -25.5)" fill="#ec7422"/>
      <path id="Path_250" data-name="Path 250" d="M2,40a1.386,1.386,0,0,1,.738-1.194A1.5,1.5,0,0,0,2.4,36.053a.515.515,0,0,1-.4-.489v-.13a.516.516,0,0,1,.4-.489,1.5,1.5,0,0,0,0-2.893.515.515,0,0,1-.4-.488v-.13a.516.516,0,0,1,.4-.488,1.5,1.5,0,0,0,.339-2.753A1.386,1.386,0,0,1,2,27h9a1.386,1.386,0,0,1-.738,1.194,1.5,1.5,0,0,0,.339,2.753.515.515,0,0,1,.4.488v.13a.516.516,0,0,1-.4.488,1.5,1.5,0,0,0,0,2.893.515.515,0,0,1,.4.489v.13a.516.516,0,0,1-.4.489,1.5,1.5,0,0,0-.339,2.752A1.386,1.386,0,0,1,11,40Z" transform="translate(0 -12.5)" fill="#ec7422"/>
      <g id="Group_1524" data-name="Group 1524" transform="translate(4.999 16.5)">
        <path id="Path_251" data-name="Path 251" d="M8,31h3v1H8Z" transform="translate(-7.999 -31)" fill="#fff"/>
      </g>
      <g id="Group_1525" data-name="Group 1525" transform="translate(4.999 18.5)">
        <path id="Path_252" data-name="Path 252" d="M8,35h3v1H8Z" transform="translate(-7.999 -35)" fill="#fff"/>
      </g>
      <g id="Group_1526" data-name="Group 1526" transform="translate(4.999 20.5)">
        <path id="Path_253" data-name="Path 253" d="M8,39h3v1H8Z" transform="translate(-7.999 -39)" fill="#fff"/>
      </g>
      <g id="Group_1527" data-name="Group 1527" transform="translate(4.999 22.5)">
        <path id="Path_254" data-name="Path 254" d="M8,43h3v1H8Z" transform="translate(-7.999 -43)" fill="#fff"/>
      </g>
      <g id="Group_1528" data-name="Group 1528" transform="translate(4.999 24.5)">
        <path id="Path_255" data-name="Path 255" d="M8,47h3v1H8Z" transform="translate(-7.999 -47)" fill="#fff"/>
      </g>
      <g id="Group_1529" data-name="Group 1529" transform="translate(12.5 16)">
        <path id="Path_256" data-name="Path 256" d="M23,31h1v3h1V31h1V30H23Z" transform="translate(-22.999 -30)" fill="#c16b3f"/>
        <path id="Path_257" data-name="Path 257" d="M56,30H53v1h1v3h1V31h1Z" transform="translate(-38 -30)" fill="#c16b3f"/>
        <path id="Path_258" data-name="Path 258" d="M30,30h1v4H30Z" transform="translate(-26.499 -30)" fill="#c16b3f"/>
        <path id="Path_259" data-name="Path 259" d="M35.5,30h-2a.5.5,0,0,0-.5.5v3a.5.5,0,0,0,.5.5h2a.5.5,0,0,0,.5-.5v-1H35V33H34V31h1v.5h1v-1A.5.5,0,0,0,35.5,30Z" transform="translate(-27.999 -30)" fill="#c16b3f"/>
        <path id="Path_260" data-name="Path 260" d="M42,30.69l-1,.5V30H40v4h1V32.309l.4-.2.6.6V34h1V32.5a.5.5,0,0,0-.146-.354l-.509-.51.379-.189A.5.5,0,0,0,43,31V30H42Z" transform="translate(-31.499 -30)" fill="#c16b3f"/>
        <path id="Path_261" data-name="Path 261" d="M47,30.5v3a.5.5,0,0,0,.5.5h2V33H48v-.5h1.5v-1H48V31h1.5V30h-2A.5.5,0,0,0,47,30.5Z" transform="translate(-34.999 -30)" fill="#c16b3f"/>
      </g>
      <g id="Group_1530" data-name="Group 1530" transform="translate(12.5 21)">
        <path id="Path_262" data-name="Path 262" d="M23,40H41v1H23Z" transform="translate(-22.999 -40)" fill="#ec7422"/>
      </g>
      <g id="Group_1531" data-name="Group 1531" transform="translate(23.5 23)">
        <path id="Path_263" data-name="Path 263" d="M45,44h7v1H45Z" transform="translate(-44.999 -44)" fill="#ec7422"/>
      </g>
      <path id="Path_264" data-name="Path 264" d="M24,45h8v2H24Z" transform="translate(-11 -21.5)" fill="#e9e9e9"/>
      <path id="Path_265" data-name="Path 265" d="M24,45v2h5.354a5.1,5.1,0,0,0,1.457-2Z" transform="translate(-11 -21.5)" fill="#fff"/>
    </g>
  </g>
</svg>
