<svg xmlns="http://www.w3.org/2000/svg" xmlns:xlink="http://www.w3.org/1999/xlink" width="40" height="40" viewBox="0 0 40 40"><defs><clipPath id="a"><rect width="40" height="40" transform="translate(3115 2379)" fill="rgba(255,255,255,0)"/></clipPath></defs><g transform="translate(-3115 -2379)" clip-path="url(#a)"><path d="M22.7,3.657l4.2,8.436a2.1,2.1,0,0,0,1.58,1.13L37.9,14.6a2.114,2.114,0,0,1,1.388.811,2.041,2.041,0,0,1,.4,1.538,2.1,2.1,0,0,1-.605,1.192l-6.833,6.624a1.991,1.991,0,0,0-.605,1.817l1.682,9.312a2.1,2.1,0,0,1-1.682,2.4,2.2,2.2,0,0,1-1.346-.215L21.887,33.69a2.2,2.2,0,0,0-1.986,0L11.49,38.073A2.155,2.155,0,0,1,8.6,37.229a2.133,2.133,0,0,1-.219-1.319L10.064,26.6a2,2,0,0,0-.605-1.819l-6.833-6.62a2.045,2.045,0,0,1-.055-2.89l.055-.055a2.032,2.032,0,0,1,1.211-.594l9.43-1.375a2.1,2.1,0,0,0,1.58-1.132l4.047-8.455A2.086,2.086,0,0,1,20.812,2.5h.253A2.1,2.1,0,0,1,22.7,3.657Z" transform="translate(3114.145 2378.587)" fill="#ffefbb"/></g></svg>