<svg xmlns="http://www.w3.org/2000/svg" width="48" height="48" viewBox="0 0 48 48">
  <g id="Group_1520" data-name="Group 1520" transform="translate(-30 -479)">
    <path id="Path_266" data-name="Path 266" d="M6,0H42a6,6,0,0,1,6,6V42a6,6,0,0,1-6,6H6a6,6,0,0,1-6-6V6A6,6,0,0,1,6,0Z" transform="translate(30 479)" fill="rgba(255,239,187,0.27)"/>
    <g id="ticket_2_" data-name="ticket (2)" transform="translate(36.696 437.333)">
      <path id="Path_266-2" data-name="Path 266" d="M34.127,82.665a1.742,1.742,0,0,1-1.765-1.1A1.922,1.922,0,0,1,32.8,79.5l-.368-.809a1.742,1.742,0,0,1-1.765-1.1,1.922,1.922,0,0,1,.441-2.059l-.368-.809a1.742,1.742,0,0,1-1.765-1.1,1.922,1.922,0,0,1,.441-2.059l-.294-.662a1.836,1.836,0,0,1-2.5-1.03L1.03,80.9A1.836,1.836,0,0,1,0,83.4l.294.662a1.742,1.742,0,0,1,1.765,1.1,1.922,1.922,0,0,1-.441,2.059l.368.809a1.742,1.742,0,0,1,1.765,1.1A1.922,1.922,0,0,1,3.31,91.2l.368.809a1.742,1.742,0,0,1,1.765,1.1A1.922,1.922,0,0,1,5,95.168l.294.662a1.836,1.836,0,0,1,2.5,1.03L33.391,85.9a1.836,1.836,0,0,1,1.03-2.5Z" transform="translate(0 -17.876)" fill="#ff7058"/>
      <path id="Path_267" data-name="Path 267" d="M93.274,139.382l-20.888,8.9-4.119-9.709L89.155,129.6ZM72.9,147.031l19.123-8.238-3.383-7.87-19.123,8.238Z" transform="translate(-63.56 -73.49)" fill="#ffd15c"/>
      <g id="Group_1532" data-name="Group 1532" transform="translate(8.385 60.228)">
        <path id="Path_268" data-name="Path 268" d="M121.894,274.372l1.03-.515,1.25,2.942.662-.221-1.25-2.942,1.03-.515-.221-.588L121.6,273.71Z" transform="translate(-121.6 -266.796)" fill="#fff"/>
        <rect id="Rectangle_85" data-name="Rectangle 85" width="0.735" height="3.898" transform="matrix(0.919, -0.394, 0.394, 0.919, 3.024, 5.628)" fill="#fff"/>
        <path id="Path_269" data-name="Path 269" d="M192.716,252.814a1.06,1.06,0,0,1-.662.809,1.244,1.244,0,0,1-1.692-.736,1.192,1.192,0,0,1,.662-1.692,1.265,1.265,0,0,1,1.03.074l.074.074.441-.588-.147-.074a1.948,1.948,0,0,0-1.692-.147,2.009,2.009,0,0,0,1.618,3.677,1.629,1.629,0,0,0,1.03-1.324v-.147l-.736-.074Z" transform="translate(-184.846 -246.195)" fill="#fff"/>
        <path id="Path_270" data-name="Path 270" d="M235.254,225.6l-.809.294-.662,2.059-.662-1.471-.588.294,1.471,3.53.662-.294-.515-1.177.147-.294,1.765.883.883-.368-2.427-1.177Z" transform="translate(-224.884 -223.099)" fill="#fff"/>
        <path id="Path_271" data-name="Path 271" d="M277.811,213.093l2.427-1.03-.294-.588-1.765.736-.368-.883,1.692-.736-.221-.588-1.765.735-.294-.883,1.765-.735-.294-.588-2.427,1.03Z" transform="translate(-265.602 -207.209)" fill="#fff"/>
        <path id="Path_272" data-name="Path 272" d="M314.667,190.51l.294.662,1.03-.441,1.25,2.942.662-.294-1.25-2.942,1.1-.441-.294-.662Z" transform="translate(-301.355 -189.333)" fill="#fff"/>
      </g>
      <path id="Path_273" data-name="Path 273" d="M66.054,81.561A1.922,1.922,0,0,1,66.5,79.5l-.368-.809a1.742,1.742,0,0,1-1.765-1.1A1.922,1.922,0,0,1,64.8,75.53l-.368-.809a1.742,1.742,0,0,1-1.765-1.1,1.922,1.922,0,0,1,.441-2.059l-.294-.662a1.836,1.836,0,0,1-2.5-1.03l-24.051,10.3v.368l.736.221a.723.723,0,0,1,.515.662.644.644,0,0,1-.515.662l-.736.221v2.574h1.177a.816.816,0,0,1,.809.809v1.1H64.583l2.574-1.1a1.836,1.836,0,0,1,1.03-2.5l-.294-.515A1.9,1.9,0,0,1,66.054,81.561Z" transform="translate(-33.766 -17.876)" fill="#231f20" opacity="0.1"/>
      <path id="Path_274" data-name="Path 274" d="M84.959,65.3a1.769,1.769,0,0,1,0-3.383v-.956a1.769,1.769,0,0,1,0-3.383V56.7a1.77,1.77,0,0,1,0-3.383v-.736a1.947,1.947,0,0,1-1.912-1.912h-27.8a1.947,1.947,0,0,1-1.912,1.912v.662a1.743,1.743,0,0,1,1.25,1.692,2.019,2.019,0,0,1-1.25,1.765v.956a1.77,1.77,0,0,1,0,3.383v.956a1.769,1.769,0,0,1,0,3.383v.662a1.947,1.947,0,0,1,1.912,1.912h27.8a1.947,1.947,0,0,1,1.912-1.912V65.3Z" transform="translate(-49.656 0)" fill="#ff7058"/>
      <path id="Path_275" data-name="Path 275" d="M140.06,110.251H117.333V99.733H140.06Zm-21.771-.956H139.1v-8.605H118.289Z" transform="translate(-109.243 -45.683)" fill="#ffd15c"/>
      <g id="Group_1533" data-name="Group 1533" transform="translate(10.738 57.213)">
        <path id="Path_276" data-name="Path 276" d="M155.733,148.395h1.1v3.236h.736v-3.236h1.177v-.662h-3.016Z" transform="translate(-155.733 -147.586)" fill="#fff"/>
        <rect id="Rectangle_86" data-name="Rectangle 86" width="0.736" height="3.898" transform="translate(3.31 0.147)" fill="#fff"/>
        <path id="Path_277" data-name="Path 277" d="M223.668,148.542a1.048,1.048,0,0,1-.883.441,1.326,1.326,0,0,1,0-2.648,1.049,1.049,0,0,1,.883.441l.074.074.588-.368-.074-.147a1.717,1.717,0,0,0-1.471-.736,1.986,1.986,0,0,0,0,3.972,1.789,1.789,0,0,0,1.471-.809l.074-.147-.588-.368Z" transform="translate(-216.313 -145.6)" fill="#fff"/>
        <path id="Path_278" data-name="Path 278" d="M278.289,147.733h-.956l-1.4,1.618v-1.618H275.2v3.9h.736v-1.324l.221-.221,1.324,1.545h.883l-1.692-2.059Z" transform="translate(-266.962 -147.586)" fill="#fff"/>
        <path id="Path_279" data-name="Path 279" d="M324.267,151.631h2.574v-.662h-1.912v-1.03h1.912v-.662h-1.912v-.883h1.912v-.662h-2.574Z" transform="translate(-312.646 -147.586)" fill="#fff"/>
        <path id="Path_280" data-name="Path 280" d="M365.867,147.733v.662h1.177v3.236h.662v-3.236h1.177v-.662Z" transform="translate(-351.378 -147.586)" fill="#fff"/>
      </g>
    </g>
  </g>
</svg>
