<svg xmlns="http://www.w3.org/2000/svg" width="20.133" height="19.659" viewBox="0 0 20.133 19.659">
  <g id="Group_1576" data-name="Group 1576" transform="translate(-1.883 -2.383)">
    <path id="Path_355" data-name="Path 355" d="M2.75,3.25l2.08.36.963,11.473a1.8,1.8,0,0,0,1.8,1.653H18.5a1.8,1.8,0,0,0,1.785-1.546l.949-6.558A1.341,1.341,0,0,0,20.1,7.113C20.037,7.1,5.164,7.1,5.164,7.1" fill="none" stroke="#fff" stroke-linecap="round" stroke-linejoin="round" stroke-width="1.5"/>
    <path id="Path_356" data-name="Path 356" d="M14.125,10.795H16.9" fill="none" stroke="#fff" stroke-linecap="round" stroke-linejoin="round" stroke-width="1.5"/>
    <path id="Path_357" data-name="Path 357" d="M7.154,20.2a.545.545,0,1,1-.544.544A.544.544,0,0,1,7.154,20.2Z" fill="#fff" stroke="#fff" stroke-linecap="round" stroke-linejoin="round" stroke-width="1.5" fill-rule="evenodd"/>
    <path id="Path_358" data-name="Path 358" d="M18.435,20.2a.545.545,0,1,1-.544.544A.545.545,0,0,1,18.435,20.2Z" fill="#fff" stroke="#fff" stroke-linecap="round" stroke-linejoin="round" stroke-width="1.5" fill-rule="evenodd"/>
  </g>
</svg>
